<svg width="2287" height="1214" viewBox="0 0 2287 1214" fill="none" xmlns="http://www.w3.org/2000/svg">
<g clip-path="url(#clip0_1563_3399)">
<path d="M310.923 1027.79L412.6 1009.19M310.923 1027.79L415.041 910.471M310.923 1027.79L325.496 920.346L232.257 930.63L202.735 1047.58L43.9863 1208.59M310.923 1027.79L308.027 1140.49M412.6 1009.19L508.335 991.688M412.6 1009.19L423.289 1110.77M412.6 1009.19L308.027 1140.49M415.046 910.466L412.605 1009.19M202.735 1047.57L325.496 920.341M202.735 1047.57L310.928 1027.78M202.735 1047.57L87.3881 1068.66M202.735 1047.57L182.11 1172.97M232.262 930.63L135.099 941.345L87.3881 1068.67M87.3881 1068.66L232.262 930.625M87.3881 1068.66L43.9863 1208.59M913.795 917.545L982.789 904.927M913.795 917.545L951.54 974.525M913.795 917.545L878.871 993.268M982.789 904.927L951.54 974.525M982.789 904.927L1019.47 957.008M951.54 974.525L1019.47 957.008M951.54 974.525L878.871 993.268M951.54 974.525L1000.14 1028.43M951.54 974.525L928.888 1052.53M1019.47 957.008L1065.62 1006.3L1122.11 1051.61L1134.19 1120.86M913.79 917.545L841.185 930.823L878.866 993.268M878.871 993.268L800.944 1013.37M878.871 993.268L928.888 1052.53M878.871 993.268L851.041 1078.85M764.682 944.813L841.19 930.823L800.944 1013.37M764.682 944.813L800.944 1013.37M764.682 944.813L683.949 959.577M764.682 944.813L717.161 1034.97M800.944 1013.37L851.046 1078.86M683.949 959.577L717.161 1034.97M683.949 959.577L626.848 1058.27M717.161 1034.97L800.939 1013.37M717.161 1034.97L626.848 1058.27M717.161 1034.97L765.651 1107.73M683.954 959.577L598.639 975.176L626.853 1058.27M626.848 1058.27L671.562 1139.54M626.848 1058.27L567.374 1174.77M508.335 991.688L598.634 975.176L529.2 1083.45M508.335 991.688L529.2 1083.45M508.335 991.688L423.294 1110.77M529.2 1083.45L626.848 1058.26M529.2 1083.45L567.374 1174.77M423.294 1110.77L529.2 1083.45L451.373 1214M423.294 1110.77L308.027 1140.49M423.294 1110.77L451.373 1214M423.294 1110.77L321.422 1257.94M308.027 1140.49L182.11 1172.97M308.027 1140.49L321.422 1257.94M308.027 1140.49L174.851 1307.49M182.11 1172.97L310.928 1027.79M182.11 1172.97L43.9863 1208.59M182.11 1172.97L174.851 1307.49M182.11 1172.97L8.24838 1363.83M43.9863 1208.59L8.24838 1363.83M1000.14 1028.43L1019.47 957.004M1000.14 1028.43L1065.62 1006.29M1000.14 1028.43L1060.71 1077.84M928.888 1052.53L1000.14 1028.44L992.705 1106.9M928.888 1052.53L992.705 1106.9M928.888 1052.53L916.97 1139.26M851.041 1078.85L928.888 1052.53M851.041 1078.85L765.651 1107.73M851.041 1078.85L916.965 1139.26M851.041 1078.85L832.099 1175.52M765.651 1107.73L800.939 1013.36M765.651 1107.73L832.099 1175.52M765.651 1107.73L736.343 1216.43M671.562 1139.54L717.161 1034.98M671.562 1139.54L765.651 1107.73M671.562 1139.54L567.374 1174.77M671.562 1139.54L736.343 1216.43M671.562 1139.54L627.462 1262.96M567.374 1174.77L451.373 1214M567.374 1174.77L627.457 1262.96L502.554 1316.33M567.374 1174.77L502.554 1316.33M451.373 1214L321.422 1257.94M451.373 1214L502.554 1316.33M451.373 1214L357.809 1378.17M321.422 1257.94L357.809 1378.17M174.851 1307.49L321.422 1257.93M174.851 1307.49L8.24838 1363.83M174.851 1307.49L185.955 1427.63M174.851 1307.49L76.1096 1427.63M8.24838 1363.83L0.160156 1427.63M1060.71 1077.84L1065.61 1006.3M1060.71 1077.84L1122.11 1051.6L1189.68 1091.38M1060.71 1077.84L1134.19 1120.85L1071.64 1154.07M1060.71 1077.84L1071.64 1154.07M992.705 1106.9L1060.71 1077.84M992.705 1106.9L1071.64 1154.08M916.97 1139.26L992.71 1106.9M916.97 1139.26L1000.61 1191.81M832.099 1175.52L916.965 1139.26L919.227 1235.03M832.099 1175.52L736.343 1216.43M832.099 1175.52L919.227 1235.03M832.099 1175.52L825.074 1285.04M736.343 1216.43L627.462 1262.96M736.343 1216.43L825.074 1285.04M736.343 1216.43L714.879 1343.57M627.462 1262.96L714.879 1343.57M502.554 1316.33L584.16 1413M357.809 1378.17L502.559 1316.33M357.809 1378.17L242.038 1427.63M357.809 1378.17L386.518 1427.63M204.033 1427.63L321.427 1257.94M1134.19 1120.86L1189.68 1091.38M1134.19 1120.86L1221.14 1155.12M1134.19 1120.86L1166.55 1191.16M1189.68 1091.38L1268.75 1123.67L1359.2 1146.19M1071.64 1154.07L1000.6 1191.8M1071.64 1154.07L1166.55 1191.15M1071.64 1154.07L1103.35 1232.89M1000.6 1191.8L992.705 1106.9M1000.6 1191.8L919.227 1235.03M1000.6 1191.8L1103.35 1232.89L1163.46 1310.11M1000.6 1191.8L1029.33 1281.77M919.227 1235.03L825.074 1285.04M919.227 1235.03L1029.33 1281.77M919.227 1235.03L941.43 1339.8M825.074 1285.04L714.879 1343.57M825.074 1285.04L941.43 1339.8M825.074 1285.04L835.359 1409.84M714.879 1343.57L584.16 1413M714.879 1343.57L835.364 1409.84L840.067 1427.63M584.16 1413L627.462 1262.95M584.16 1413L556.605 1427.63M584.16 1413L605.429 1427.63M584.16 1413L580.81 1427.63M455.677 1427.63L502.554 1316.32M329.91 1427.63L357.804 1378.17M1221.14 1155.12L1166.55 1191.16M1221.14 1155.12L1277.43 1214.68M1221.14 1155.11L1189.69 1091.38M1221.14 1155.11L1268.76 1123.67L1321.42 1177.83M1221.14 1155.11L1321.42 1177.83M1166.55 1191.16L1103.35 1232.89M1166.55 1191.16L1277.43 1214.68M1166.55 1191.16L1225.55 1258.12M1103.35 1232.89L1029.33 1281.77M1103.35 1232.89L1225.55 1258.12M1029.33 1281.77L941.43 1339.8M1029.33 1281.77L1163.46 1310.11M1029.33 1281.77L1087.83 1373.45M941.43 1339.8L1087.83 1373.45M941.43 1339.8L982.225 1427.63M835.359 1409.84L941.43 1339.81M835.359 1409.84L808.413 1427.63M835.359 1409.84L901.712 1427.63M709.337 1427.63L714.874 1343.57M1321.42 1177.83L1359.21 1146.19M1321.42 1177.83L1277.43 1214.68M1321.42 1177.83L1433.82 1185.93M1359.21 1146.19L1433.82 1185.93M1359.21 1146.19L1460.07 1156.36M1277.43 1214.68L1225.55 1258.12M1277.43 1214.68L1402.83 1220.83M1225.55 1258.12L1163.46 1310.11M1225.55 1258.12L1365.69 1262.66M1163.46 1310.11L1087.83 1373.45M1163.46 1310.11L1320.37 1313.71M1163.46 1310.11L1263.83 1377.39M1087.83 1373.45L1023.13 1427.63M1087.83 1373.45L1263.83 1377.39M1433.82 1185.93L1460.06 1156.36M1433.82 1185.93L1402.83 1220.83M1433.82 1185.93L1555.61 1176.39L1460.06 1156.36M1402.83 1220.83L1321.42 1177.83M1402.83 1220.83L1365.69 1262.66M1365.69 1262.66L1277.43 1214.67M1365.69 1262.66L1320.37 1313.7L1225.55 1258.11M1263.83 1377.39L1320.37 1313.71M1263.83 1377.39L1219.22 1427.63M1153.33 1427.63L1087.84 1373.45" stroke="#C6B519" stroke-opacity="0.2" stroke-width="0.65" stroke-miterlimit="10"/>
<path d="M1569.21 1151.61L1555.61 1176.39L1682.26 1146.8M1569.21 1151.61L1682.26 1146.8M1569.21 1151.61L1683.06 1129.69M1460.06 1156.36L1569.21 1151.62M1539.37 1205.98L1402.83 1220.83L1519.65 1241.91M1539.37 1205.98L1433.82 1185.93M1539.37 1205.98L1555.61 1176.39L1681.29 1167.37M1539.37 1205.98L1681.29 1167.37M1539.37 1205.98L1680.1 1192.59M1519.65 1241.9L1365.69 1262.66L1495.2 1286.47M1519.65 1241.91L1539.37 1205.98M1519.65 1241.91L1680.09 1192.59L1856.98 1126.71M1519.65 1241.91L1678.61 1224.22M1495.2 1286.47L1519.66 1241.91M1495.2 1286.47L1678.61 1224.22M1495.2 1286.47L1676.68 1265.06M1464.07 1343.18L1320.37 1313.7L1495.2 1286.46L1464.07 1343.18ZM1464.07 1343.18L1676.68 1265.06M1368.01 1427.63L1423.1 1417.83M1423.1 1417.83L1263.83 1377.39L1464.07 1343.19L1674.1 1319.84M1423.1 1417.83L1464.07 1343.18M1423.1 1417.83L1417.73 1427.63M1423.1 1417.83L1674.1 1319.84M1682.26 1146.8L1683.06 1129.69M1682.26 1146.8L1807.4 1095.95M1682.26 1146.8L1820.51 1104.08M1683.06 1129.69L1807.4 1095.96M1683.06 1129.69L1796.54 1089.22L1807.4 1095.96M1681.29 1167.37L1682.26 1146.8M1681.29 1167.37L1680.1 1192.59M1681.29 1167.37L1820.51 1104.08M1681.29 1167.37L1836.64 1114.09M1680.1 1192.59L1678.61 1224.22M1680.1 1192.59L1836.64 1114.09M1678.61 1224.22L1676.68 1265.06M1678.61 1224.22L1856.98 1126.71M1676.68 1265.06L1883.43 1143.12M1676.68 1265.06L1919.22 1165.32M1674.1 1319.84L1676.68 1265.07M1674.1 1319.84L1670.45 1397.14M1674.1 1319.84L1919.22 1165.32M1674.1 1319.84L1970.35 1197.04M1595.39 1427.63L1670.45 1397.14L1669.02 1427.63M1670.45 1397.14L1423.1 1417.84M1670.45 1397.14L1970.35 1197.04M1670.45 1397.14L2049.38 1246.07M1807.4 1095.95L1820.51 1104.08M1807.4 1095.95L1947.45 1017.84M1807.4 1095.96L1923.32 1024.61M1820.51 1104.08L1947.45 1017.84M1836.64 1114.09L1820.51 1104.09L1977.12 1009.53M1836.64 1114.09L1856.98 1126.71M1836.64 1114.09L1977.12 1009.53M1836.64 1114.09L2014.48 999.061M1856.98 1126.71L1883.43 1143.12M1856.98 1126.71L2014.48 999.061M1883.43 1143.12L1678.61 1224.21M1883.43 1143.12L1919.22 1165.32M1883.43 1143.12L2062.97 985.469M1919.22 1165.32L1970.35 1197.04M1919.22 1165.32L2128.41 967.133L2221.59 941.017M1919.22 1165.32L2221.59 941.017M1970.35 1197.04L2049.38 1246.07M1970.35 1197.04L2221.59 941.017M1970.35 1197.04L2286.84 959.458M1789.28 1427.63L2049.39 1246.07M2049.38 1246.07L2187.75 1331.91M2049.38 1246.07L2286.84 986.269M2054.29 1427.63L2187.75 1331.9M2187.75 1331.91L1913.56 1427.64M2187.75 1331.91L2286.84 1215.41M2286.84 1393.37L2187.75 1331.9L2286.84 1264.94M1923.31 1024.61L1796.54 1089.22M1923.31 1024.61L1903.3 1030.22L1996.38 954.569M1923.31 1024.61L1947.45 1017.84M1923.31 1024.61L2021.89 935.841M1796.54 1089.22L1903.3 1030.22M1947.45 1017.84L2052.49 913.372M1947.45 1017.84L2089.86 885.93M1977.12 1009.53L1947.45 1017.85M1977.12 1009.53L2014.48 999.061M1977.12 1009.53L2089.86 885.935M2014.48 999.061L2062.97 985.474M2014.48 999.061L2136.55 851.652M2014.48 999.061L2196.54 807.608M2062.97 985.474L1856.99 1126.71M2062.97 985.474L2128.41 967.133M2062.97 985.474L2196.54 807.608M2062.97 985.474L2276.42 748.954M2128.41 967.133L1883.43 1143.12M2128.41 967.133L2276.42 748.954M2128.41 967.133L2286.84 784.002M2221.59 941.017L2286.84 922.731M2221.59 941.017L2286.84 833.624M2286.84 1071.47L2049.38 1246.06M2021.89 935.841L1996.38 954.569M2021.89 935.841L2096.03 834.946M1996.38 954.569L2069.27 866.089M2052.49 913.372L1923.31 1024.6M2052.49 913.372L2021.89 935.836L2127.85 797.921M2052.49 913.372L2089.86 885.93M2052.49 913.372L2127.85 797.921M2089.86 885.93L2136.55 851.647M2089.86 885.93L2166.3 753.187M2089.86 885.93L2213.69 698.044M2136.55 851.647L1977.12 1009.53M2136.55 851.647L2196.54 807.608M2136.55 851.647L2213.69 698.044M2136.55 851.647L2273.56 628.387M2196.54 807.608L2276.42 748.954M2196.54 807.608L2273.56 628.387M2196.54 807.608L2286.84 650.354M2276.42 748.954L2286.84 741.304M2276.42 748.954L2286.84 719.654M2276.42 748.954L2286.84 729.699M2286.84 863.421L2221.59 941.012M2096.03 834.941L2069.27 866.084M2096.03 834.941L2127.85 797.921M2096.03 834.941L2141 728.725M2069.27 866.084L2141 728.725M2069.27 866.084L2117 770.171M2127.85 797.921L2166.3 753.187M2127.85 797.921L2169.2 680.031M2166.3 753.187L2052.49 913.377M2166.3 753.187L2213.69 698.044M2166.3 753.187L2202.79 622.018M2213.69 698.044L2243.5 551.704M2213.69 698.044L2286.84 485.181M2273.56 628.387L2213.7 698.044M2273.56 628.387L2286.84 612.942M2273.56 628.387L2286.84 521.361M2273.56 628.387L2286.84 585.182M2141 728.725L2117 770.171M2141 728.725L2155.23 624.363M2117 770.171L2155.23 624.363M2169.2 680.036L2096.04 834.946M2169.2 680.036L2141.01 728.73M2169.2 680.036L2202.8 622.018M2169.2 680.036L2176.25 567.954L2200.91 501.783M2169.2 680.036L2200.91 501.783M2202.8 622.018L2127.86 797.926M2202.8 622.018L2200.91 501.783M2243.51 551.704L2166.31 753.187M2243.51 551.704L2202.8 622.013L2230.23 423.079M2243.51 551.704L2286.84 476.87M2243.51 551.704L2230.23 423.079M2155.23 624.363L2137.09 673.027L2140.32 528.207M2155.23 624.363L2140.32 528.207M2117.01 770.171L2137.1 673.022M2176.25 567.954L2141 728.73M2176.25 567.954L2155.23 624.368M2176.25 567.954L2152.33 468.246L2166.19 399.025M2176.25 567.954L2166.19 399.025M2200.91 501.783L2166.19 399.025M2230.23 423.079L2200.91 501.778L2182.38 318.205M2230.23 423.079L2182.38 318.205M2230.23 423.079L2201.52 222.62L2182.38 318.205M2286.84 430.63L2265.69 327.917M2265.69 327.917L2243.51 551.709M2265.69 327.917L2230.23 423.084M2265.69 327.917L2286.84 271.145M2265.69 327.917L2201.52 222.625M2265.69 327.917L2224.51 107.81M2140.32 528.207L2129.81 580.641M2140.32 528.207L2100.35 444.952M2140.32 528.207L2103.14 385.115L2152.33 468.246M2137.1 673.027L2129.82 580.641L2097.89 497.968M2152.33 468.246L2155.23 624.363M2152.33 468.246L2140.32 528.207M2182.38 318.205L2166.19 399.02M2286.84 183.196L2224.51 107.81M2224.51 107.81L2201.51 222.62M2224.51 107.81L2246.07 0.158997M2286.84 113.767L2260.31 0.158997M2100.35 444.952L2129.81 580.646M2100.35 444.952L2097.89 497.968" stroke="#C6B519" stroke-opacity="0.2" stroke-width="0.65" stroke-miterlimit="10"/>
<path d="M2100.35 444.952L2103.14 385.115L2106.3 317.057M2166.19 399.025L2106.3 317.057M2106.3 317.057L2152.33 468.246M2182.38 318.205L2109.94 238.949M2109.94 238.949L2166.19 399.02M2109.94 238.949L2106.3 317.052M2109.94 238.949L2114.15 148.402M2201.52 222.62L2114.15 148.397M2114.15 148.402L2182.38 318.21M2114.15 148.402L2119.09 42.1763L2201.52 222.625M2119.09 42.1763L2224.51 107.81L2168.7 0.158997M2121.05 0.158997L2119.09 42.1713M680.329 0.158997L660.358 27.1786L588.982 127.84M588.987 127.845L522.958 225.049L460.979 320.505M460.974 320.505L402.054 415.737L345.457 512.201L290.642 611.362M290.642 611.357L237.294 714.761L185.345 824.111M185.35 824.116L135.098 941.345M1038.89 478.822L1022.39 460.526L992.674 518.281M1038.89 478.822L992.674 518.281M1038.89 478.822L1006.41 536.15M992.674 518.281L1006.41 536.15M992.674 518.281L977.457 498.485M992.674 518.281L967.851 577.283M992.674 518.281L955.693 557.352M1006.41 536.15L1018.87 552.355M1006.41 536.15L978.83 595.271M1004.12 440.262L1022.39 460.526L977.457 498.485M1004.12 440.262L977.457 498.485M1004.12 440.262L960.501 476.423M977.457 498.485L960.501 476.423M977.457 498.485L955.688 557.352L942.138 535.142M977.457 498.485L942.138 535.142M1004.12 440.267L983.772 417.704L960.501 476.423M960.501 476.423L942.138 535.142M960.501 476.423L926.945 510.238M983.772 417.699L960.981 392.423L941.489 451.688M941.494 451.688L983.777 417.704M941.494 451.688L960.506 476.423M941.494 451.688L926.945 510.238M1058.92 604.467L1067.04 615.038M1058.92 604.467L1020.79 664.045M1058.92 604.467L1013.77 652.535M1020.79 664.045L1067.05 615.038L1027.28 674.686M1020.79 664.045L1027.28 674.686M1020.79 664.045L1013.77 652.535M1020.79 664.045L987.846 727.851M1020.79 664.045L982.559 715.874M1027.28 674.686L987.842 727.851M1027.28 674.686L992.729 738.924M1058.92 604.472L1050.13 593.036L1013.77 652.54M1013.77 652.535L1006.15 640.046M1013.77 652.535L982.559 715.874M1013.77 652.535L976.828 702.888M1040.59 580.626L1050.13 593.031L1006.15 640.046M1040.59 580.626L1006.15 640.046M1040.59 580.626L997.852 626.449M1006.15 640.046L997.852 626.449M1006.15 640.046L976.828 702.883L948.728 754.299M1006.15 640.046L970.587 688.75M1030.21 567.119L1040.6 580.626M1030.21 567.119L997.852 626.449M1030.21 567.119L1018.87 552.355M1030.21 567.119L988.785 611.586M997.852 626.449L988.785 611.586M997.852 626.449L970.587 688.75M997.852 626.449L963.772 673.31M1018.87 552.355L988.785 611.586M1018.87 552.355L978.83 595.271M988.785 611.586L978.83 595.271M988.785 611.586L963.777 673.31L956.297 656.37M988.785 611.586L956.297 656.37M978.83 595.271L967.856 577.283M978.83 595.271L956.297 656.37M967.856 577.283L1006.41 536.145M967.856 577.283L955.693 557.352M967.856 577.283L948.059 637.701M955.693 557.352L938.938 617.035M942.138 535.142L928.778 594.015M926.945 510.238L942.143 535.142M926.945 510.238L917.399 568.232M987.842 727.851L992.729 738.924M987.842 727.851L960.382 796.262M992.729 738.924L960.382 796.262M992.729 738.924L963.692 808.175M982.559 715.874L987.842 727.846M982.559 715.874L976.828 702.888M982.559 715.874L956.812 783.395M982.559 715.874L952.937 769.456M976.828 702.888L952.937 769.456M970.587 688.75L976.823 702.883M970.587 688.75L948.728 754.299M970.587 688.75L944.135 737.762M963.772 673.31L970.587 688.755M963.772 673.31L944.135 737.767M956.297 656.37L948.059 637.706M956.297 656.37L939.102 719.644M956.297 656.37L933.566 699.714M948.059 637.706L978.83 595.276M948.059 637.706L938.938 617.035M948.059 637.706L933.566 699.714M938.938 617.035L967.856 577.288M938.938 617.035L927.444 677.672L918.063 712.674M928.778 594.02L955.693 557.357M928.778 594.02L938.933 617.035L920.634 653.171M928.778 594.02L917.399 568.237M928.778 594.02L920.634 653.171M928.778 594.02L913.025 625.778M917.399 568.237L942.138 535.147M917.399 568.237L913.025 625.778M960.382 796.262L963.692 808.17L952.433 844.777M960.382 796.262L948.968 835.368M956.812 783.395L987.846 727.846M956.812 783.395L960.386 796.262L947.046 830.137M956.812 783.395L952.937 769.456M956.812 783.395L945.303 825.393M952.937 769.456L948.728 754.299M952.937 769.456L941.414 814.836M948.728 754.299L944.135 737.762M948.728 754.299L937.32 803.704M944.135 737.762L939.102 719.644M944.135 737.762L933.256 790.991M939.102 719.644L963.777 673.305M939.102 719.644L929.482 775.089M939.102 719.644L925.917 760.072M933.566 699.714L939.102 719.649M933.566 699.714L925.507 758.363M933.566 699.714L921.608 739.381M927.439 677.672L948.054 637.706M927.439 677.672L933.561 699.714M927.439 677.672L920.634 653.171M927.439 677.672L921.603 739.381M920.634 653.171L913.025 625.778M920.634 653.171L918.058 712.674L914.109 682.913M920.634 653.171L914.109 682.913M913.025 625.778L914.109 682.913M950.785 840.296L963.697 808.175M943.032 819.233L956.812 783.4M938.718 807.509L952.937 769.461M934.14 794.722L948.728 754.304M930.195 778.11L944.13 737.762M921.608 739.381L922.377 745.154M921.608 739.381L918.063 712.674M918.063 712.674L921.054 739.595M921.603 741.905V739.376M954.705 850.947L982.789 904.927M1996.68 955.901L1996.38 954.569L1997.66 955.126M2069.58 866.7L2069.27 866.084L2069.95 866.258M1194.46 0.158997L1194.53 7.4765M1200.99 0.158997L1194.52 7.4765M1194.52 7.4765L1128.5 15.2461M1194.52 7.4765L1139.24 76.7767M1141.19 0.158997L1128.5 15.2461M1128.5 15.2461L1139.24 76.7767M1128.5 15.2461L1125.87 0.158997M1128.5 15.2461L1072.19 89.2656M1128.5 15.2461L1053.66 37.0744M1139.24 76.7767L1072.19 89.2656M1139.24 76.7767L1091.46 143.514L1072.19 89.2656M1072.19 89.2656L1053.66 37.0744M1072.19 89.2656L1023.68 160.314M1072.19 89.2656L998.156 114.517M1082.88 0.158997L1053.66 37.0744M1053.66 37.0744L1040.54 0.158997M1053.66 37.0744L998.156 114.517M1053.66 37.0744L973.672 70.5869M1023.68 160.314L1091.47 143.514L1050.32 208.099M1023.68 160.314L1050.32 208.094M1023.68 160.314L998.156 114.517M1025.92 0.158997L973.672 70.5819M973.672 70.5869L998.161 114.522M973.672 70.5869L950.161 28.4057M971.645 0.158997L950.161 28.4057M950.161 28.4057L1008.34 0.158997" stroke="#C6B519" stroke-opacity="0.2" stroke-width="0.65" stroke-miterlimit="10"/>
<path d="M934.415 0.158997L950.157 28.4057M982.03 228.974L1023.68 160.314L950.346 188.859M982.03 228.974L950.346 188.859M982.03 228.974L909.336 260.802M982.035 228.974L1050.32 208.094L1015.15 270.897M982.035 228.974L1015.15 270.897M982.035 228.974L946.577 295.745M1015.15 270.897L946.572 295.745M1015.15 270.897L985.475 332.244M950.346 188.859L998.157 114.517L920.001 150.439M950.346 188.859L920.001 150.439M950.346 188.859L909.336 260.802M950.346 188.859L873.658 227.325M973.672 70.5869L920.001 150.439M920.001 150.439L890.908 113.603M920.001 150.439L873.658 227.325M920.001 150.439L839.443 195.218M890.908 113.603L950.162 28.4057L862.994 78.2621M890.908 113.603L973.672 70.5819M890.908 113.603L839.443 195.218M918.792 0.158997L862.989 78.2571M862.994 78.2621L890.908 113.608M862.994 78.2621L806.601 164.403L721.05 221.776M868.421 0.158997L836.183 44.3174L810.42 11.6991M836.183 44.3224L907.679 0.158997M836.183 44.3224L862.989 78.2621L775.047 134.795M836.183 44.3224L775.047 134.795M836.183 44.3224L744.716 106.335M818.993 0.158997L810.42 11.6991M810.42 11.6991L827.955 0.158997M810.42 11.6991L801.303 0.158997M810.42 11.6991L744.716 106.33M946.572 295.745L985.47 332.244M946.572 295.745L916.855 361.047M946.572 295.745L874.522 330.932M985.47 332.244L916.855 361.042M985.47 332.244L960.981 392.428M909.336 260.802L946.572 295.741M909.336 260.802L873.658 227.325M909.336 260.802L874.522 330.932M909.336 260.802L833.866 302.015M873.658 227.325L839.443 195.218M873.658 227.325L833.866 302.015M873.658 227.325L794.798 274.225M839.443 195.218L794.798 274.225M806.596 164.398L890.903 113.603M806.596 164.398L839.438 195.213M806.596 164.398L775.047 134.795M806.596 164.398L757.218 247.499M775.047 134.795L744.716 106.335M775.047 134.795L721.045 221.771M775.047 134.795L686.211 196.996M744.716 106.335L715.533 78.9526M744.716 106.335L686.211 196.996M744.716 106.335L652.63 173.111M771.542 0.158997L715.533 78.9476L687.434 52.5837M715.533 78.9526L810.42 11.7041M715.533 78.9526L652.635 173.111L558.702 244.404M725.479 0.158997L687.434 52.5837M687.434 52.5837L758.685 0.158997M687.434 52.5837L660.359 27.1786L695.927 0.158997M687.434 52.5837L620.242 150.076M687.434 52.5837L588.987 127.845L620.247 150.076L522.959 225.049L558.702 244.404M916.855 361.042L960.981 392.423M916.855 361.042L892.615 425.225L822.203 467.59M874.522 330.932L916.86 361.042L845.534 399.726M874.522 330.932L833.866 302.015M874.522 330.932L845.534 399.731M874.522 330.932L800.14 375.145M833.866 302.015L794.798 274.225M833.866 302.015L800.14 375.145M833.866 302.015L756.349 351.434M794.798 274.225L757.218 247.499M794.798 274.225L756.349 351.434M794.798 274.225L714.075 328.543M757.218 247.499L839.438 195.218M757.218 247.499L721.05 221.776M757.218 247.499L714.075 328.543M757.218 247.499L673.245 306.431M721.05 221.776L686.211 196.996M721.05 221.776L673.245 306.436L633.782 285.065M686.211 196.996L652.63 173.111M686.211 196.996L633.782 285.065M686.211 196.996L595.623 264.399M652.63 173.111L620.242 150.076M652.63 173.111L595.623 264.399M620.242 150.076L715.528 78.9476M620.242 150.076L558.697 244.404M892.62 425.225L960.986 392.428M892.62 425.225L941.494 451.688L873.753 488.579M892.62 425.225L873.753 488.579M845.534 399.726L892.62 425.22M845.534 399.726L800.14 375.145M845.534 399.726L822.203 467.59M845.534 399.726L772.231 447.242M800.14 375.145L756.349 351.434M800.14 375.145L772.231 447.242M800.14 375.145L723.756 427.505M756.349 351.434L714.075 328.543M756.349 351.434L723.756 427.505M714.075 328.543L673.245 306.431M714.075 328.543L676.72 408.355L594.19 472.593M714.075 328.543L631.051 389.755M673.245 306.431L631.051 389.755M673.245 306.431L586.701 371.697M633.782 285.065L721.045 221.776M633.782 285.065L595.623 264.399M633.782 285.065L586.696 371.697L495.993 443.536M633.782 285.065L543.604 354.151M595.623 264.399L558.702 244.404M595.623 264.399L543.604 354.151M558.702 244.404L501.715 337.092M558.702 244.404L460.974 320.505L501.71 337.092L402.055 415.737L448.512 429.482M873.753 488.579L926.945 510.238L860.297 551.337M873.753 488.579L860.302 551.337L804.554 534.839M873.753 488.579L804.554 534.839M822.203 467.59L873.748 488.579M822.203 467.59L772.231 447.242M822.203 467.59L804.549 534.839M772.231 447.242L723.756 427.505M772.231 447.242L750.113 518.733M772.231 447.242L696.935 502.995M723.756 427.505L696.93 502.995M723.756 427.505L644.971 487.62M676.72 408.35L756.349 351.429M676.72 408.35L723.756 427.5M676.72 408.35L644.976 487.615M631.051 389.755L676.715 408.35M631.051 389.755L586.701 371.697M631.051 389.755L594.19 472.588L544.542 457.898M631.051 389.755L544.542 457.898M586.701 371.697L543.604 354.151M586.701 371.697L544.542 457.903M543.604 354.151L501.715 337.092M543.604 354.151L495.993 443.536M543.604 354.151L448.512 429.482M501.715 337.092L595.628 264.399M501.715 337.092L448.512 429.482M860.297 551.337L917.399 568.232M860.297 551.337L852.444 613.657M804.554 534.839L792.766 601.71M750.113 518.733L822.208 467.595M750.113 518.733L804.554 534.844L733.966 589.946M750.113 518.733L696.935 502.995M750.113 518.733L733.966 589.946M750.113 518.733L676.026 578.351M696.93 502.995L644.971 487.62M696.93 502.995L618.929 566.925M696.935 502.995L676.031 578.351M644.971 487.62L618.929 566.925M644.971 487.62L562.656 555.664M594.19 472.593L644.976 487.62M594.19 472.593L562.656 555.664M594.19 472.593L507.192 544.566L562.661 555.664M544.542 457.898L507.192 544.561M544.542 457.898L452.511 533.622M495.993 443.536L544.537 457.903M495.993 443.536L452.511 533.627M495.993 443.536L398.605 522.837M448.512 429.482L495.998 443.536M448.512 429.482L398.61 522.837M448.512 429.482L345.457 512.201L398.605 522.837M852.444 613.657L917.399 568.237M852.444 613.657L913.026 625.778M792.766 601.715L860.297 551.342M792.766 601.715L852.449 613.657M792.766 601.715L733.966 589.946M733.966 589.946L676.026 578.351M676.026 578.351L618.929 566.925M618.929 566.925L562.656 555.664M452.511 533.622L507.187 544.566M452.511 533.622L398.605 522.837" stroke="#C6B519" stroke-opacity="0.2" stroke-width="0.65" stroke-miterlimit="10"/>
<path d="M850.521 675.615L852.444 613.657L787.214 668.347M850.521 675.615L913.025 625.778M850.521 675.615L914.109 682.913M850.521 675.615L855 737.2M850.521 675.615L788.447 734.781M787.214 668.352L792.766 601.715L724.185 661.114M787.214 668.347L850.521 675.61M787.214 668.347L724.185 661.114M787.214 668.347L788.447 734.776M787.214 668.347L721.384 732.342M724.185 661.114L733.966 589.946L661.432 653.911M724.185 661.114L661.432 653.911M724.185 661.114L721.384 732.342M724.185 661.114L653.813 729.888M661.432 653.911L676.026 578.351L598.958 646.742M661.432 653.911L598.958 646.742M661.432 653.911L653.808 729.888M598.958 646.742L618.929 566.925L536.753 639.604M598.958 646.742L536.753 639.604M598.958 646.742L585.722 727.419M598.958 646.742L517.107 724.925M536.753 639.604L562.656 555.664L474.824 632.495M536.753 639.604L474.824 632.495M536.753 639.604L517.107 724.925M474.824 632.495L447.968 722.411M474.824 632.495L378.289 719.883M452.511 533.622L413.163 625.421M413.163 625.421L507.191 544.566L474.824 632.5L413.163 625.421ZM413.163 625.421L351.773 618.377M413.163 625.421L378.289 719.883M413.163 625.421L308.066 717.334M398.604 522.837L351.768 618.377M351.773 618.377L452.516 533.627M351.773 618.377L308.066 717.334M398.604 522.832L290.642 611.357L351.768 618.372L237.294 714.761L308.066 717.329M855 737.2L788.447 734.781M855 737.2L797.194 800.902M855 737.195L914.114 682.908M855 737.195L921.054 739.595L866.498 798.269M855 737.195L866.498 798.269M788.447 734.776L721.384 732.342M788.447 734.776L726.417 803.584M788.447 734.781L797.194 800.902M721.384 732.342L653.813 729.888M721.384 732.342L726.417 803.584M721.384 732.342L654.112 806.327M653.813 729.888L654.112 806.327M585.722 727.419L661.432 653.916M585.722 727.419L653.813 729.893L580.235 809.133M585.722 727.419L517.107 724.925M585.722 727.419L580.235 809.133M517.107 724.925L504.73 811.995M447.968 722.411L536.758 639.604M447.968 722.411L517.112 724.925L427.552 814.926M447.968 722.411L378.289 719.883M447.968 722.411L427.552 814.921L348.632 817.916M378.289 719.883L308.066 717.334M378.289 719.883L348.637 817.921M378.289 719.883L267.92 820.981M308.066 717.334L267.92 820.981M308.066 717.334L185.35 824.116L267.92 820.981M866.498 798.269L934.374 795.696M866.498 798.269L885.79 858.548M866.498 798.269L814.399 866.422M797.194 800.902L866.498 798.274M797.194 800.902L814.399 866.427M726.417 803.584L797.194 800.897L740.387 874.584M726.417 803.584L654.112 806.327M726.417 803.584L740.387 874.584M654.112 806.327L663.609 883.049L583.91 891.842M654.112 806.327L583.91 891.842M580.235 809.133L654.112 806.332M580.235 809.133L583.91 891.847L501.115 900.977M580.235 809.133L501.115 900.977M504.735 811.995L585.722 727.414M504.735 811.995L580.235 809.128M504.735 811.995L427.552 814.926M504.735 811.995L501.12 900.972M504.735 811.995L415.046 910.466L501.115 900.972L412.599 1009.19M427.552 814.926L415.046 910.471L325.496 920.347L427.552 814.926ZM348.632 817.916L447.963 722.411M348.632 817.916L267.92 820.981M348.632 817.916L325.496 920.342M267.92 820.981L232.257 930.63L348.632 817.921M885.79 858.548L934.369 795.696M885.79 858.548L954.7 850.947M885.79 858.548L814.399 866.422M885.79 858.548L913.789 917.545M885.79 858.548L841.185 930.824L814.399 866.422M814.399 866.422L740.387 874.584M814.399 866.422L764.681 944.813L740.387 874.584M740.387 874.584L663.609 883.054M663.609 883.054L726.412 803.584M663.609 883.054L683.949 959.577L740.387 874.589M583.91 891.842L598.633 975.176M583.91 891.842L508.335 991.689M501.115 900.977L508.335 991.693M135.098 941.345L267.925 820.981M913.794 917.545L954.705 850.947M598.638 975.176L663.614 883.054M1646.95 296.6L1564.34 306.312L1485.36 324.608L1410.77 350.232L1340.97 382.15M1340.97 382.15L1276.16 419.552L1216.38 461.847L1161.62 508.644M1161.62 508.649L1111.85 559.727L1067.05 615.038M918.173 714.572L917.983 714.508M2040.78 377.326L2097.89 497.968M2040.78 377.326L2045.68 428.38L1967.34 326.257M2040.78 377.326L1967.35 326.257M2040.78 377.326L1955.26 273.942M2035.31 320.376L2103.14 385.115L2029.18 256.441M2035.31 320.376L2100.35 444.952L2040.77 377.331L2035.31 320.376ZM2035.31 320.376L2029.18 256.441M2035.31 320.376L1955.26 273.942M2035.31 320.376L1941.84 215.854M2106.3 317.057L2029.18 256.441M2029.18 256.441L2022.24 184.155M2029.18 256.441L1941.84 215.854M2109.94 238.949L2022.24 184.155M2022.24 184.155L2106.3 317.052M2022.24 184.155L2014.34 101.774M2022.24 184.155L1926.85 150.985M2022.24 184.155L1910.01 78.0733M2014.34 101.774L2114.15 148.402L2005.25 7.0145M2014.34 101.774L2109.94 238.954M2014.34 101.774L2005.25 7.0145M2014.34 101.774L1910.01 78.0733M2119.09 42.1763L2005.25 7.01947M2005.25 7.0145L2004.59 0.158997M2005.25 7.0145L1937.05 0.158997M2005.25 7.0145L1996.42 0.158997M2083.12 0.158997L2119.09 42.1713M1967.34 326.257L1978.28 373.62L1885.32 291.299M1967.34 326.257L1955.26 273.942M1967.34 326.257L1885.32 291.299M1967.34 326.257L1868.44 244.488M1955.26 273.942L1941.84 215.854M1955.26 273.942L1868.44 244.488M1955.26 273.942L1849.87 192.968M1941.84 215.854L1926.85 150.985M1941.84 215.854L1849.87 192.968M1926.85 150.985L2029.18 256.441M1926.85 150.985L1910.01 78.0733M1926.85 150.985L1829.32 135.987M1926.85 150.985L1806.47 72.6286M1910.01 78.0733L1892.01 0.158997M1910.01 78.0733L1806.47 72.6286M1910.01 78.0733L1780.92 1.76358M1896.32 0.158997L2014.34 101.769M1885.32 291.299L1900.73 334.017M1885.32 291.299L1868.44 244.488M1885.32 291.299L1799.11 271.145M1885.32 291.299L1779.15 230.037L1868.44 244.488M1868.44 244.488L1849.87 192.968M1829.32 135.987L1941.84 215.854M1829.32 135.987L1849.87 192.968M1806.47 72.6286L1829.32 135.982M1806.47 72.6286L1780.92 1.76358M1809.23 0.158997L1780.92 1.76358M1780.92 1.76358L1780.34 0.158997M1799.11 271.145L1900.73 334.022M1799.11 271.145L1817.43 308.885" stroke="#C6B519" stroke-opacity="0.2" stroke-width="0.65" stroke-miterlimit="10"/>
<path d="M1849.87 192.968L1757.33 185.099M1757.34 185.099L1868.45 244.488M1757.34 185.099L1779.15 230.042M1757.34 185.099L1667 189.649L1554.56 168.104M1829.32 135.987L1733.38 135.759M1733.38 135.759L1706.96 81.3371M1733.38 135.759L1613.24 100.845M1733.38 135.754L1849.87 192.963M1733.38 135.754L1757.34 185.094M1733.38 135.754L1641.35 147.289M1706.96 81.3371L1829.32 135.987M1706.96 81.3371L1613.24 100.845M1677.68 21.0087L1780.92 1.76358L1776.38 0.158997M1677.68 21.0087L1806.47 72.6286L1706.96 81.3321L1582.27 49.6776M1677.68 21.0087L1706.96 81.3321M1677.68 21.0087L1582.27 49.6776L1460.55 37.3576M1667.55 0.158997L1677.67 21.0087L1580.98 0.158997M1712.05 264.066L1799.11 271.145L1779.15 230.037L1690.47 228.422M1712.05 264.066L1817.43 308.885M1712.05 264.066L1731.94 296.933M1712.05 264.066L1690.47 228.427M1712.05 264.066L1626.56 268.239L1522.57 255.631M1712.05 264.066L1604.51 237.568M1690.47 228.427L1799.11 271.15M1690.47 228.427L1604.51 237.573M1667 189.644L1779.15 230.037M1667 189.644L1690.47 228.422L1580.59 204.304M1667 189.644L1641.35 147.289M1667 189.644L1580.59 204.304M1641.35 147.289L1757.33 185.094M1641.35 147.289L1554.56 168.099M1641.35 147.289L1526.12 128.551M1613.24 100.845L1641.36 147.294M1613.24 100.845L1526.12 128.556M1613.24 100.845L1494.92 85.1672M1582.27 49.6776L1613.24 100.841M1582.27 49.6776L1552.29 0.158997M1582.27 49.6776L1494.92 85.1623L1460.55 37.3576M1626.56 268.234L1731.94 296.928M1626.56 268.234L1646.95 296.6L1544.26 281.935M1626.56 268.234L1544.26 281.935M1604.51 237.568L1626.56 268.234M1604.51 237.568L1580.59 204.304M1604.51 237.568L1522.58 255.631L1423.02 256.634M1604.51 237.568L1499.1 227.151M1580.59 204.304L1499.1 227.146M1580.59 204.304L1473.61 196.216M1554.56 168.104L1580.59 204.309M1554.56 168.104L1526.12 128.551M1554.56 168.104L1473.61 196.216M1554.56 168.104L1445.82 162.5M1526.12 128.551L1494.92 85.1672M1526.12 128.551L1445.82 162.5M1526.12 128.551L1415.41 125.605M1494.92 85.1672L1415.41 125.605M1494.92 85.1672L1382 85.0629M1533.94 0.158997L1460.55 37.3576M1460.55 37.3576L1433.8 0.158997M1460.55 37.3576L1382 85.058M1460.55 37.3576L1345.11 40.2985M1544.26 281.935L1564.34 306.312M1544.26 281.935L1466.15 303.659M1544.26 281.935L1445.43 281.066M1522.57 255.631L1544.26 281.94M1522.57 255.631L1499.1 227.151M1522.57 255.631L1445.43 281.071L1423.02 256.634M1499.1 227.151L1473.61 196.216M1499.1 227.151L1423.02 256.634M1473.61 196.216L1445.82 162.5M1473.61 196.216L1398.71 230.121M1473.61 196.216L1372.23 201.254M1445.82 162.5L1415.41 125.605M1445.82 162.5L1372.23 201.254M1445.82 162.5L1343.29 169.704M1415.41 125.605L1382 85.0629M1415.41 125.605L1343.29 169.699M1415.41 125.605L1311.54 135.073M1382 85.0629L1345.11 40.2985M1382 85.0629L1311.54 135.078M1400.69 0.158997L1345.11 40.2985M1345.11 40.2985L1312.03 0.158997M1345.11 40.2985L1276.54 96.9011M1345.11 40.2985L1237.74 54.6006M1466.15 303.659L1564.35 306.312M1466.15 303.659L1485.36 324.608M1466.15 303.659L1445.43 281.066M1466.15 303.659L1392.81 332.144L1306.74 349.407M1466.15 303.659L1373.44 312.646M1445.43 281.066L1373.44 312.646M1445.43 281.066L1352.51 291.558M1423.02 256.634L1398.71 230.121M1423.02 256.634L1352.51 291.558M1398.71 230.121L1499.11 227.151M1398.71 230.121L1372.23 201.254M1398.71 230.121L1329.79 268.686M1372.23 201.254L1343.29 169.704M1372.23 201.254L1305.06 243.783M1372.23 201.254L1278.04 216.569M1343.29 169.699L1311.54 135.073M1343.29 169.699L1248.4 186.713M1343.29 169.704L1278.04 216.569M1311.54 135.073L1276.53 96.9011M1311.54 135.073L1248.4 186.713M1311.54 135.073L1215.73 153.812M1276.53 96.9011L1382 85.0629M1276.53 96.9011L1215.73 153.812M1276.53 96.9011L1179.54 117.368M1294.27 0.158997L1237.74 54.6006M1237.74 54.6006L1276.54 96.8961M1237.74 54.6006L1179.55 117.363M1242.12 0.158997L1194.52 7.4765L1237.74 54.6056L1139.24 76.7767L1179.54 117.368M1392.81 332.149L1485.36 324.613M1392.81 332.149L1410.77 350.237M1392.81 332.149L1373.44 312.646M1392.81 332.149L1324.5 366.397M1373.44 312.646L1352.51 291.558M1373.44 312.646L1306.74 349.407M1352.51 291.558L1287.52 331.031M1352.51 291.558L1266.67 311.086M1329.79 268.681L1423.02 256.629M1329.79 268.681L1352.5 291.558M1329.79 268.681L1266.67 311.086M1305.06 243.778L1398.71 230.116M1305.06 243.778L1329.79 268.681M1305.06 243.778L1243.96 289.367M1305.06 243.778L1219.14 265.631M1278.04 216.569L1305.06 243.778M1278.04 216.569L1248.4 186.713M1278.04 216.569L1219.14 265.631M1278.04 216.569L1191.9 239.575M1248.4 186.713L1215.73 153.812M1248.4 186.713L1191.9 239.57M1215.73 153.812L1161.86 210.842M1215.73 153.812L1128.57 178.998M1179.54 117.368L1215.73 153.817M1179.54 117.368L1128.57 179.003M1179.54 117.368L1091.47 143.514L1128.57 178.998M1324.5 366.397L1410.77 350.232M1324.5 366.397L1340.97 382.15M1324.5 366.397L1306.74 349.407M1324.5 366.397L1261.31 405.647L1245.29 390.645M1324.5 366.397L1245.29 390.645M1306.74 349.407L1245.29 390.645M1306.74 349.407L1227.94 374.405L1245.29 390.645M1287.52 331.031L1373.44 312.646M1287.52 331.031L1306.73 349.407M1287.52 331.031L1227.94 374.405L1209.1 356.769M1287.52 331.031L1209.1 356.769M1266.67 311.086L1287.52 331.026M1266.67 311.086L1209.1 356.769M1266.67 311.086L1188.58 337.549L1209.1 356.769M1243.96 289.372L1329.79 268.686M1243.96 289.372L1266.67 311.091M1243.96 289.372L1219.14 265.631M1243.96 289.372L1188.58 337.554M1219.14 265.631L1191.9 239.575M1219.14 265.631L1166.13 316.526M1219.14 265.631L1141.46 293.431L1166.13 316.526M1191.9 239.575L1161.86 210.842M1191.9 239.575L1141.45 293.431L1114.23 267.936M1191.9 239.575L1114.23 267.936M1161.86 210.842L1248.4 186.718M1161.86 210.842L1128.57 178.998M1161.86 210.842L1114.23 267.936M1161.86 210.842L1084.02 239.655L1114.23 267.936M1128.57 178.998L1084.02 239.65L1050.32 208.094L1128.57 178.998ZM1261.31 405.647L1340.97 382.15M1261.31 405.647L1276.16 419.552L1203.21 449.353L1261.31 405.647ZM1166.13 316.526L1243.97 289.372M1166.13 316.526L1188.58 337.549" stroke="#C6B519" stroke-opacity="0.2" stroke-width="0.65" stroke-miterlimit="10"/>
<path d="M1203.21 449.353L1216.38 461.847L1150.15 497.158M1203.21 449.353L1188.99 435.861M1203.21 449.353L1150.15 497.158M1203.21 449.353L1137.75 484.744M1188.99 435.861L1261.31 405.647M1188.99 435.861L1173.59 421.246M1188.99 435.861L1137.75 484.744M1173.59 421.246L1227.94 374.405L1156.85 405.359M1173.59 421.246L1245.29 390.645L1189 435.861L1124.32 471.286M1173.59 421.246L1156.85 405.359M1173.59 421.246L1124.32 471.286M1173.59 421.246L1109.7 456.651M1209.1 356.769L1156.85 405.359M1156.85 405.359L1138.59 388.031M1156.85 405.359L1109.7 456.651M1156.85 405.359L1093.74 440.67M1138.59 388.031L1188.58 337.549L1118.6 369.06M1138.59 388.031L1209.11 356.769M1138.59 388.031L1118.6 369.06M1138.59 388.031L1093.74 440.67M1138.59 388.031L1076.25 423.154M1166.13 316.526L1118.6 369.06M1118.6 369.06L1076.25 423.154M1118.6 369.06L1057 403.869M1096.61 348.195L1141.46 293.43L1072.3 325.135M1096.6 348.19L1166.12 316.526M1096.6 348.19L1118.6 369.055M1096.6 348.19L1056.99 403.864M1096.6 348.19L1035.69 382.532M1114.23 267.936L1072.3 325.135M1072.3 325.135L1096.6 348.195M1072.3 325.135L1035.69 382.532M1072.3 325.135L1011.99 358.801M1045.31 299.521L1084.02 239.655L1015.15 270.897L1045.31 299.516M1045.31 299.516L1114.23 267.931M1045.31 299.516L1072.3 325.13M1045.31 299.516L1011.99 358.796L960.981 392.423M1045.31 299.516L985.47 332.244L1011.99 358.801M1150.15 497.158L1161.62 508.649M1150.15 497.158L1137.75 484.744M1150.15 497.158L1102.06 548.873M1150.15 497.158L1091.48 537.139M1137.75 484.744L1091.48 537.139M1124.32 471.286L1137.76 484.744L1080 524.411M1124.32 471.286L1080 524.411M1124.32 471.286L1067.51 510.561M1109.7 456.651L1124.32 471.291M1109.7 456.651L1093.74 440.67M1109.7 456.651L1067.51 510.561M1109.7 456.651L1053.86 495.424M1093.74 440.67L1076.25 423.154M1093.74 440.67L1053.86 495.424M1093.74 440.67L1038.89 478.822L1053.86 495.424M1076.25 423.154L1057 403.869M1076.25 423.154L1038.89 478.822M1076.25 423.154L1022.39 460.526L1057 403.869M1035.69 382.532L1056.99 403.869L1004.12 440.262L1035.69 382.532ZM1035.69 382.532L983.772 417.704M1011.99 358.801L1035.69 382.532M1011.99 358.801L983.777 417.704M1102.06 548.873L1161.62 508.644M1102.06 548.873L1111.85 559.727M1102.06 548.873L1058.92 604.467M1091.48 537.139L1102.06 548.873M1091.48 537.139L1050.13 593.031M1091.48 537.139L1040.59 580.626M1080 524.411L1091.48 537.139M1080 524.411L1040.6 580.626M1080 524.411L1030.21 567.119L1067.51 510.561M1067.51 510.561L1080 524.416M1067.51 510.561L1053.86 495.424M1067.51 510.561L1018.87 552.355L1053.86 495.424M1053.86 495.424L1006.41 536.15M1058.92 604.467L1111.84 559.727M1050.13 593.036L1102.06 548.877M2097.89 497.968L2045.68 428.385M2045.68 428.38L1978.28 373.62M1978.28 373.625L1900.73 334.022L1817.43 308.89M1817.43 308.885L1731.94 296.928M1731.94 296.933L1646.95 296.6M1996.68 955.901L1903.3 1030.22M1996.38 954.569L2069.58 866.705L2069.95 866.258L2096.03 834.941M918.063 712.674L918.173 714.572L918.338 717.434L921.054 739.595L921.603 741.905L922.372 745.154L925.507 758.358L925.912 760.072M914.109 682.913L917.978 714.512M2021.89 935.841L1997.66 955.126L1996.69 955.901M917.983 714.507L918.343 717.429M934.369 795.695L934.14 794.722L933.256 790.996L930.195 778.11M930.2 778.115L929.482 775.094L925.917 760.072M945.298 825.393L947.046 830.137L948.973 835.373L950.785 840.296L952.438 844.782M952.433 844.782L954.705 850.947M934.374 795.695L937.325 803.708M945.298 825.398L943.032 819.233L941.414 814.836L938.718 807.509L937.32 803.708" stroke="#C6B519" stroke-opacity="0.2" stroke-width="0.65" stroke-miterlimit="10"/>
</g>
<defs>
<clipPath id="clip0_1563_3399">
<rect width="2287" height="1214" fill="white"/>
</clipPath>
</defs>
</svg>
